# This file uses centimeters as units for non-parametric coordinates.

mtllib Cliff04_low.mtl
g default
v 20.462513 21.155632 -12.350342
v 17.267952 21.489220 -13.653534
v 14.218577 26.122051 -12.034203
v 19.888203 25.955227 -4.422329
v 5.366443 21.383877 -16.317940
v -5.998600 27.302532 -8.652584
v -4.774467 31.327011 2.984028
v -11.258768 33.560883 9.813707
v 10.006119 28.584770 13.497799
v -11.391885 33.461174 17.814692
v 4.591443 29.346283 20.117878
v -17.985004 33.393131 12.645216
v -18.369459 26.636673 20.900526
v -15.126492 26.959404 23.033360
v -9.254721 31.244488 21.881475
v -4.069464 31.118279 21.548601
v 4.239264 28.932716 22.254646
v 19.596207 23.810364 14.295849
v 19.422775 26.517750 3.746410
v 5.567643 19.574619 24.205280
v -17.105970 18.921341 23.186871
v -16.152069 19.678699 23.800087
v -9.333699 19.700645 24.042397
v -3.592813 19.420887 24.059715
v 20.415892 17.925301 21.037294
v 11.044820 22.257748 24.135448
v 9.668365 -32.354481 26.569592
v 17.196930 -27.161739 26.064404
v -5.816188 -32.573582 26.854488
v -11.993375 -31.373425 27.005772
v -19.831787 -29.634460 24.460705
v -14.217445 25.950867 -6.898869
v -15.394152 22.571533 -6.269787
v -16.914459 30.403164 2.338051
v -14.564907 22.112244 -11.343517
v -16.742983 17.932117 -13.738708
v -22.658413 -33.164219 -9.626991
v -20.758186 -33.495861 17.763947
v -22.065304 -18.088047 -18.163696
v -17.208645 -30.299160 -24.557114
v -17.163128 -32.863388 -20.702103
v -7.223702 1.141193 -22.056358
v -11.806280 14.886651 -17.164326
v -4.301176 -29.848915 -26.643585
v 22.181639 -17.404741 -14.471104
v 19.630423 -21.463970 -16.542957
v 14.520778 -32.936111 -19.387798
v 22.720413 -29.931431 -11.887367
v 23.176769 -32.087486 2.639801
v 18.682419 -31.402645 22.853062
v 18.850927 -32.521587 19.434668
v 12.274880 -33.511826 21.958939
v 19.003576 -33.504726 1.716469
vt 0.356652 0.387276
vt 0.339721 0.444633
vt 0.134940 0.440212
vt 0.140321 0.414202
vt 0.367918 0.447268
vt 0.364640 0.393149
vt 0.280233 0.494899
vt 0.204431 0.474005
vt 0.102253 0.413131
vt 0.085479 0.378416
vt 0.117592 0.002853
vt 0.366958 0.031844
vt 0.054004 0.112165
vt 0.318009 0.002818
vt 0.027338 0.000000
vt 0.000000 0.019937
vt 0.411452 0.369551
vt 0.371435 0.044382
vt 0.665930 0.113423
vt 0.652082 0.391546
vt 0.649107 0.022752
vt 0.544755 0.005035
vt 0.595132 0.426627
vt 0.728849 0.000000
vt 0.689195 0.083856
vt 0.419785 0.004686
vt 0.394996 0.012323
vt 0.536246 0.431389
vt 0.460167 0.412180
vt 0.670596 0.408300
vt 0.659912 0.448527
vt 0.368147 0.434000
vt 0.368206 0.503993
vt 0.916355 0.729175
vt 0.772796 0.716313
vt 0.774450 0.629983
vt 0.953322 0.673738
vt 0.941229 0.761022
vt 0.857458 0.777960
vt 0.713076 0.712243
vt 0.710209 0.753296
vt 0.876419 0.551698
vt 0.725953 0.583596
vt 0.689337 0.641571
vt 0.726047 0.819105
vt 0.692683 0.785865
vt 0.950453 0.540162
vt 0.946814 0.616560
vt 0.723174 0.528706
vt 0.836413 0.506812
vt 0.677640 0.564926
vt 0.834057 0.491530
vt 0.774172 0.499620
vt 0.689312 0.475974
vt 0.664809 0.489124
vt 0.737367 0.496934
vt 0.673242 0.415390
vt 0.782224 0.482769
vt 0.736307 0.485793
vt 0.676176 0.472360
vt 0.661235 0.214455
vt 0.702275 0.133518
vt 0.915207 0.446911
vt 0.895411 0.481539
vt 0.934927 0.145053
vt 0.966096 0.300120
vt 0.964115 0.430203
vt 0.963693 0.456996
vt 1.000000 0.199457
vt 0.998225 0.307396
vt 0.702137 0.099651
vt 0.797117 0.085782
vt 0.082851 0.963957
vt 0.039546 0.931750
vt 0.031746 0.878130
vt 0.081855 0.877698
vt 0.000000 0.516500
vt 0.060147 0.502191
vt 0.120960 0.963299
vt 0.124009 0.875410
vt 0.105464 0.493192
vt 0.181814 0.946261
vt 0.191306 0.876068
vt 0.219153 0.494220
vt 0.231654 0.895465
vt 0.304555 0.864670
vt 0.274690 0.532131
vt 0.291069 0.495037
vt 0.426539 0.522177
vt 0.460540 0.625043
vt 0.343127 0.753381
vt 0.386465 0.496054
vt 0.463661 0.413486
vt 0.550018 0.475837
vt 0.477907 0.846855
vt 0.384476 0.849019
vt 0.623115 0.861485
vt 0.636538 0.471925
vt 0.659999 0.777676
vt 0.661126 0.473013
vt 0.681205 0.747213
vn 0.508268 0.241240 -0.826721
vn 0.297526 0.201675 -0.933170
vn 0.101615 0.899931 -0.424026
vn 0.181512 0.970712 -0.157390
vn -0.054020 0.820391 -0.569246
vn 0.163882 0.266588 -0.949776
vn 0.130848 0.978149 -0.161568
vn 0.259107 0.965560 0.023604
vn 0.133208 0.984613 -0.113103
vn 0.033741 0.977040 0.210367
vn 0.284425 0.952007 0.113074
vn -0.292663 0.932447 0.211877
vn -0.240606 0.404247 0.882436
vn -0.480645 0.615577 0.624536
vn -0.031369 0.362955 0.931279
vn 0.213408 0.955646 0.202972
vn 0.415671 0.831445 0.368670
vn 0.437329 0.825657 0.356418
vn 0.322983 0.939669 0.112712
vn -0.569983 0.083831 0.817369
vn -0.195637 0.065454 0.978490
vn -0.071656 0.070801 0.994913
vn 0.007774 0.072219 0.997359
vn -0.002402 0.066072 0.997812
vn 0.264277 0.258435 0.929177
vn 0.265648 0.171953 0.948611
vn 0.031602 -0.565366 0.824234
vn 0.212214 0.045487 0.976164
vn 0.008999 0.051309 0.998642
vn -0.081803 0.051182 0.995333
vn -0.181695 0.046921 0.982235
vn -0.991960 -0.068649 -0.106317
vn -0.741499 0.576982 -0.342448
vn -0.995703 0.091105 0.016601
vn -0.974804 -0.191032 -0.115171
vn -0.974804 -0.191032 -0.115171
vn -0.330201 0.692856 -0.641029
vn -0.984000 0.128334 0.123593
vn -0.996645 0.081511 0.007436
vn 0.038234 -0.999085 0.019148
vn -0.023901 -0.999053 0.036359
vn -0.255679 -0.860749 0.440158
vn -0.255679 -0.860749 0.440158
vn -0.990763 0.116055 0.070139
vn -0.994115 0.083249 0.069314
vn -0.897998 -0.233913 -0.372673
vn -0.897998 -0.233913 -0.372673
vn -0.304448 0.328925 -0.893935
vn 0.078611 0.175776 -0.981287
vn 0.139360 0.149610 -0.978875
vn -0.056726 0.916225 -0.396628
vn 0.512080 0.043380 -0.857842
vn 0.340400 0.056797 -0.938564
vn 0.326411 0.108462 -0.938984
vn -0.000296 -0.891527 -0.452967
vn -0.000296 -0.891527 -0.452967
vn 0.011977 -0.999324 -0.034748
vn 0.001310 -0.996720 -0.080922
vn 0.058679 -0.998217 -0.010929
vn 0.704746 -0.126633 -0.698067
vn 0.969524 0.209581 0.126885
vn 0.307143 -0.798096 0.518368
vn 0.975836 0.034186 0.215815
vn -0.005917 -0.999569 0.028744
vn 0.230901 -0.967992 0.098373
vn 0.045397 -0.998771 -0.019884
vn 0.321247 -0.946303 -0.036218
vn 0.408699 -0.903961 -0.125777
vn 0.981576 0.187498 0.036797
s 1
g Cliff04_low:polySurface1
usemtl initialShadingGroup
f 1/20/1 2/30/2 3/31/3 4/23/4
f 6/35/5 3/34/3 2/38/2 5/39/6
f 3/34/3 6/35/5 7/36/7 4/37/4
f 9/42/8 4/37/4 7/36/7 8/43/9
f 9/42/8 8/43/9 10/49/10 11/50/11
f 12/51/12 10/49/10 8/43/9
f 14/54/13 10/49/10 12/51/12 13/55/14
f 15/56/15 10/49/10 14/54/13
f 15/56/15 16/53/16 10/49/10
f 16/53/16 17/52/17 11/50/11 10/49/10
f 9/42/8 11/50/11 17/52/17 18/47/18
f 4/37/4 9/42/8 18/47/18 19/48/19
f 14/5/13 13/2/14 21/1/20 22/6/21
f 15/73/15 14/74/13 22/75/21 23/76/22
f 16/79/16 15/73/15 23/76/22 24/80/23
f 17/82/17 16/79/16 24/80/23 20/83/24
f 26/32/25 25/17/26 18/29/18 17/33/17
f 26/85/25 17/82/17 20/83/24
f 25/86/26 26/85/25 27/84/27 28/87/28
f 26/85/25 20/83/24 27/84/27
f 20/83/24 24/80/23 29/81/29 27/84/27
f 24/80/23 23/76/22 30/78/30 29/81/29
f 23/76/22 22/75/21 31/77/31 30/78/30
f 21/1/20 31/12/31 22/6/21
f 21/1/20 13/2/32 32/3/33 33/4/34
f 13/2/32 12/7/35 34/8/36 32/3/33
f 33/4/34 32/3/33 35/9/37 36/10/38
f 21/1/20 33/4/34 37/11/39 31/12/31
f 38/57/40 29/58/41 30/59/42 31/60/43
f 31/12/31 37/11/39 38/14/44
f 33/4/34 36/10/38 39/13/45 37/11/39
f 41/15/46 37/11/39 39/13/45 40/16/47
f 43/89/48 42/90/49 39/91/45 36/92/38
f 39/91/45 42/90/49 44/95/50 40/96/47
f 43/89/48 6/93/5 5/94/6 42/90/49
f 6/35/5 43/45/48 36/46/38 35/41/37
f 32/40/33 7/36/7 6/35/5 35/41/37
f 32/40/33 34/44/51 8/43/9 7/36/7
f 8/43/9 34/44/51 12/51/12
f 2/98/2 1/100/1 45/101/52 46/99/53
f 5/94/6 2/98/2 46/99/53 47/97/54
f 44/95/50 42/90/49 5/94/6 47/97/54
f 40/71/55 44/72/56 47/65/57 41/62/58
f 38/57/40 37/61/59 41/62/58 29/58/41
f 25/17/26 28/18/28 45/19/52 1/20/1
f 45/19/52 48/21/60 47/24/54 46/25/53
f 48/21/60 45/19/52 28/18/28 49/22/61
f 27/84/27 50/88/62 28/87/28
f 51/26/63 49/22/61 28/18/28 50/27/62
f 52/63/64 51/67/65 50/68/62 27/64/27
f 51/67/65 52/63/64 53/66/66 49/70/67
f 48/69/68 49/70/67 53/66/66 47/65/57
f 47/65/57 53/66/66 52/63/64 41/62/58
f 29/58/41 41/62/58 52/63/64 27/64/27
f 19/28/69 18/29/18 25/17/26 4/23/4
f 4/23/4 25/17/26 1/20/1
