# This file uses centimeters as units for non-parametric coordinates.

mtllib Cliff02_low.mtl
g default
v 0.603655 53.682159 14.211746
v -2.399332 54.057964 -1.164940
v -13.032398 49.432369 -2.166420
v -13.953674 40.893799 7.885994
v 3.120771 55.304077 10.591629
v 5.240131 58.481052 -7.901436
v 6.156975 61.674263 -18.811272
v -3.508482 53.523338 -19.740105
v -9.322985 47.921593 -15.059334
v -11.582626 46.778786 -12.247169
v -19.019905 -61.551380 -20.221764
v -27.635418 -62.163403 10.653801
v -27.084084 -54.941654 19.004356
v -24.905579 -62.054810 22.625923
v 19.296625 60.805122 -9.274635
v 16.388088 62.672188 -15.594276
v 19.483473 55.340675 13.475243
v 6.850245 54.335606 16.944801
v 15.962807 55.441078 16.510155
v 18.960806 51.035851 17.113724
v 19.126143 58.384491 -15.439064
v 17.510769 59.329418 -17.250374
v 16.364040 -62.283657 -19.885033
v -5.801998 -61.879196 -33.114906
v -7.725212 -62.076248 32.158119
v 0.750652 50.366459 15.747597
v -1.099590 -61.900608 33.114906
v 19.641937 -61.824081 28.396584
v 27.635420 -62.356300 -3.076637
v 23.937868 -62.116844 18.566071
v 21.891153 -62.672188 22.600815
vt 0.925547 0.286358
vt 0.882921 0.332270
vt 0.845671 0.304800
vt 0.861547 0.259559
vt 0.925817 0.304048
vt 0.899775 0.371779
vt 0.841587 0.387249
vt 0.890491 0.413978
vt 0.819815 0.342372
vt 0.821684 0.357612
vt 0.815332 0.343466
vt 0.385396 0.390816
vt 0.373515 0.270799
vt 0.402969 0.239113
vt 0.783065 0.262000
vt 0.819390 0.300840
vt 0.373558 0.221660
vt 0.933389 0.416319
vt 0.951167 0.396427
vt 0.987037 0.317745
vt 0.949040 0.286888
vt 0.979955 0.301736
vt 0.873147 0.756954
vt 0.853208 0.748528
vt 0.870987 0.734069
vt 0.897260 0.618652
vt 0.889469 0.646469
vt 0.878690 0.623293
vt 0.882623 0.614041
vt 0.868364 0.466420
vt 0.872791 0.419651
vt 0.882768 0.462384
vt 0.418200 0.606164
vt 0.411999 0.556994
vt 0.393310 0.459129
vt 0.829791 0.200870
vt 0.815357 0.198835
vt 0.873904 0.792075
vt 0.877360 0.818030
vt 0.863382 0.818227
vt 0.438763 0.914646
vt 0.435077 0.889311
vt 0.382167 0.147642
vt 0.425503 0.808550
vt 0.418254 0.683619
vt 0.422320 0.767409
vt 0.421086 0.784868
vt 0.258325 0.623048
vt 0.199032 0.636514
vt 0.185639 0.447199
vt 0.248999 0.485031
vt 0.281402 0.532952
vt 0.271062 0.594858
vt 0.265092 0.606439
vt 0.180086 0.633781
vt 0.147836 0.484044
vt 0.130980 0.606531
vt 0.123181 0.572308
vn -0.599996 0.738355 0.307954
vn -0.599996 0.738356 0.307954
vn -0.599996 0.738355 0.307954
vn -0.599996 0.738355 0.307954
vn -0.427086 0.898054 0.105344
vn -0.427086 0.898054 0.105344
vn -0.568893 0.818748 0.077535
vn -0.568893 0.818748 0.077535
vn -0.424081 0.877277 -0.224810
vn -0.424081 0.877277 -0.224810
vn -0.971454 0.097702 -0.216176
vn -0.971454 0.097702 -0.216176
vn -0.971454 0.097702 -0.216176
vn -0.958437 -0.181431 0.220185
vn -0.151421 0.943542 0.294620
vn -0.151421 0.943542 0.294620
vn -0.085692 0.975945 0.200470
vn -0.078278 0.977677 0.194987
vn -0.126907 0.975540 -0.179491
vn 0.579211 0.484051 0.655904
vn 0.579211 0.484051 0.655904
vn 0.579210 0.484051 0.655904
vn 0.814412 0.510053 -0.276728
vn 0.814412 0.510053 -0.276728
vn 0.814412 0.510053 -0.276728
vn 0.814412 0.510053 -0.276728
vn 0.217376 0.490961 -0.843626
vn 0.748193 0.007318 -0.663441
vn 0.406192 0.041354 -0.912852
vn -0.512781 0.172295 0.841053
vn -0.213114 0.152795 0.965006
vn -0.213114 0.152795 0.965006
vn 0.164556 0.114704 0.979676
vn 0.894283 0.017240 -0.447169
vn 0.994724 0.056892 0.085362
vn 0.938195 0.045670 0.343082
vn -0.008519 -0.999954 0.004420
vn -0.008519 -0.999954 0.004420
vn -0.008519 -0.999954 0.004420
vn -0.008519 -0.999954 0.004420
vn 0.039525 -0.999213 -0.003450
vn 0.039525 -0.999213 -0.003450
vn 0.039525 -0.999213 -0.003450
vn -0.009655 -0.999948 -0.003303
vn -0.009655 -0.999948 -0.003303
vn 0.014860 -0.999842 -0.009706
vn 0.014860 -0.999842 -0.009706
s 1
g Cliff02_low:Cliff02_low
usemtl initialShadingGroup
f 1/1/1 2/2/2 3/3/3 4/4/4
f 2/2/2 1/1/1 5/5/5 6/6/6
f 8/7/7 2/2/2 6/6/6 7/8/8
f 10/9/9 3/3/3 2/2/2 9/10/10
f 8/7/7 9/10/10 2/2/2
f 10/11/9 11/12/11 12/13/12 13/14/13
f 13/14/13 4/15/4 3/16/3 10/11/9
f 12/13/12 14/17/14 13/14/13
f 16/18/15 7/8/8 6/6/6 15/19/16
f 6/6/6 5/5/5 17/20/17 15/19/16
f 18/21/18 17/20/17 5/5/5 1/1/1
f 18/21/18 19/22/19 17/20/17
f 19/23/20 20/24/21 17/25/22
f 16/26/23 15/27/24 21/28/25 22/29/26
f 22/30/26 7/31/27 16/32/23
f 21/28/25 23/33/28 22/29/26
f 7/31/27 22/30/26 23/34/28 24/35/29
f 11/12/11 10/11/9 9/10/10 24/35/29
f 24/35/29 9/10/10 8/7/7
f 24/35/29 8/7/7 7/31/27
f 1/36/1 4/15/4 26/37/30
f 4/15/4 13/14/13 14/17/14
f 18/38/18 1/39/1 26/40/30
f 18/38/18 26/40/30 25/41/31 27/42/32
f 26/37/30 4/15/4 14/17/14 25/43/31
f 19/23/20 18/38/18 27/42/32 28/44/33
f 21/28/25 15/27/24 29/45/34 23/33/28
f 15/27/24 17/25/22 30/46/35 29/45/34
f 17/25/22 20/24/21 31/47/36 30/46/35
f 20/24/21 19/23/20 28/44/33 31/47/36
s 4
f 28/48/37 27/49/38 24/50/39 23/51/40
f 29/52/41 30/53/42 31/54/43 23/51/40
f 23/51/40 31/54/43 28/48/37
f 27/49/38 25/55/44 11/56/45 24/50/39
f 14/57/46 12/58/47 11/56/45 25/55/44
g default
v 0.603655 53.682159 14.211746
v -2.399332 54.057964 -1.164940
v -13.032398 49.432369 -2.166420
v -13.953674 40.893799 7.885994
v 3.120771 55.304077 10.591629
v 5.240131 58.481052 -7.901436
v 6.156975 61.674263 -18.811272
v -3.508482 53.523338 -19.740105
v -9.322985 47.921593 -15.059334
v -11.582626 46.778786 -12.247169
v -19.019905 -61.551380 -20.221764
v -27.635418 -62.163403 10.653801
v -27.084084 -54.941654 19.004356
v -24.905579 -62.054810 22.625923
v 19.296625 60.805122 -9.274635
v 16.388088 62.672188 -15.594276
v 19.483473 55.340675 13.475243
v 6.850245 54.335606 16.944801
v 15.962807 55.441078 16.510155
v 18.960806 51.035851 17.113724
v 19.126143 58.384491 -15.439064
v 17.510769 59.329418 -17.250374
v 16.364040 -62.283657 -19.885033
v -5.801998 -61.879196 -33.114906
v -7.725212 -62.076248 32.158119
v 0.750652 50.366459 15.747597
v -1.099590 -61.900608 33.114906
v 19.641937 -61.824081 28.396584
v 27.635420 -62.356300 -3.076637
v 23.937868 -62.116844 18.566071
v 21.891153 -62.672188 22.600815
vt 0.925547 0.286358
vt 0.882921 0.332270
vt 0.845671 0.304800
vt 0.861547 0.259559
vt 0.925817 0.304048
vt 0.899775 0.371779
vt 0.841587 0.387249
vt 0.890491 0.413978
vt 0.819815 0.342372
vt 0.821684 0.357612
vt 0.815332 0.343466
vt 0.385396 0.390816
vt 0.373515 0.270799
vt 0.402969 0.239113
vt 0.783065 0.262000
vt 0.819390 0.300840
vt 0.373558 0.221660
vt 0.933389 0.416319
vt 0.951167 0.396427
vt 0.987037 0.317745
vt 0.949040 0.286888
vt 0.979955 0.301736
vt 0.873147 0.756954
vt 0.853208 0.748528
vt 0.870987 0.734069
vt 0.897260 0.618652
vt 0.889469 0.646469
vt 0.878690 0.623293
vt 0.882623 0.614041
vt 0.868364 0.466420
vt 0.872791 0.419651
vt 0.882768 0.462384
vt 0.418200 0.606164
vt 0.411999 0.556994
vt 0.393310 0.459129
vt 0.829791 0.200870
vt 0.815357 0.198835
vt 0.873904 0.792075
vt 0.877360 0.818030
vt 0.863382 0.818227
vt 0.438763 0.914646
vt 0.435077 0.889311
vt 0.382167 0.147642
vt 0.425503 0.808550
vt 0.418254 0.683619
vt 0.422320 0.767409
vt 0.421086 0.784868
vt 0.258325 0.623048
vt 0.199032 0.636514
vt 0.185639 0.447199
vt 0.248999 0.485031
vt 0.281402 0.532952
vt 0.271062 0.594858
vt 0.265092 0.606439
vt 0.180086 0.633781
vt 0.147836 0.484044
vt 0.130980 0.606531
vt 0.123181 0.572308
vn -0.599996 0.738355 0.307954
vn -0.599996 0.738356 0.307954
vn -0.599996 0.738355 0.307954
vn -0.599996 0.738355 0.307954
vn -0.427086 0.898054 0.105344
vn -0.427086 0.898054 0.105344
vn -0.568893 0.818748 0.077535
vn -0.568893 0.818748 0.077535
vn -0.424081 0.877277 -0.224810
vn -0.424081 0.877277 -0.224810
vn -0.971454 0.097702 -0.216176
vn -0.971454 0.097702 -0.216176
vn -0.971454 0.097702 -0.216176
vn -0.958437 -0.181431 0.220185
vn -0.151421 0.943542 0.294620
vn -0.151421 0.943542 0.294620
vn -0.085692 0.975945 0.200470
vn -0.078278 0.977677 0.194987
vn -0.126907 0.975540 -0.179491
vn 0.579211 0.484051 0.655904
vn 0.579211 0.484051 0.655904
vn 0.579210 0.484051 0.655904
vn 0.814412 0.510053 -0.276728
vn 0.814412 0.510053 -0.276728
vn 0.814412 0.510053 -0.276728
vn 0.814412 0.510053 -0.276728
vn 0.217376 0.490961 -0.843626
vn 0.748193 0.007318 -0.663441
vn 0.406192 0.041354 -0.912852
vn -0.512781 0.172295 0.841053
vn -0.213114 0.152795 0.965006
vn -0.213114 0.152795 0.965006
vn 0.164556 0.114704 0.979676
vn 0.894283 0.017240 -0.447169
vn 0.994724 0.056892 0.085362
vn 0.938195 0.045670 0.343082
vn -0.008519 -0.999954 0.004420
vn -0.008519 -0.999954 0.004420
vn -0.008519 -0.999954 0.004420
vn -0.008519 -0.999954 0.004420
vn 0.039525 -0.999213 -0.003450
vn 0.039525 -0.999213 -0.003450
vn 0.039525 -0.999213 -0.003450
vn -0.009655 -0.999948 -0.003303
vn -0.009655 -0.999948 -0.003303
vn 0.014860 -0.999842 -0.009706
vn 0.014860 -0.999842 -0.009706
s 1
g Cliff02_low:Cliff02_low
f 32/59/48 33/60/49 34/61/50 35/62/51
f 33/60/49 32/59/48 36/63/52 37/64/53
f 39/65/54 33/60/49 37/64/53 38/66/55
f 41/67/56 34/61/50 33/60/49 40/68/57
f 39/65/54 40/68/57 33/60/49
f 41/69/56 42/70/58 43/71/59 44/72/60
f 44/72/60 35/73/51 34/74/50 41/69/56
f 43/71/59 45/75/61 44/72/60
f 47/76/62 38/66/55 37/64/53 46/77/63
f 37/64/53 36/63/52 48/78/64 46/77/63
f 49/79/65 48/78/64 36/63/52 32/59/48
f 49/79/65 50/80/66 48/78/64
f 50/81/67 51/82/68 48/83/69
f 47/84/70 46/85/71 52/86/72 53/87/73
f 53/88/73 38/89/74 47/90/70
f 52/86/72 54/91/75 53/87/73
f 38/89/74 53/88/73 54/92/75 55/93/76
f 42/70/58 41/69/56 40/68/57 55/93/76
f 55/93/76 40/68/57 39/65/54
f 55/93/76 39/65/54 38/89/74
f 32/94/48 35/73/51 57/95/77
f 35/73/51 44/72/60 45/75/61
f 49/96/65 32/97/48 57/98/77
f 49/96/65 57/98/77 56/99/78 58/100/79
f 57/95/77 35/73/51 45/75/61 56/101/78
f 50/81/67 49/96/65 58/100/79 59/102/80
f 52/86/72 46/85/71 60/103/81 54/91/75
f 46/85/71 48/83/69 61/104/82 60/103/81
f 48/83/69 51/82/68 62/105/83 61/104/82
f 51/82/68 50/81/67 59/102/80 62/105/83
s 4
f 59/106/84 58/107/85 55/108/86 54/109/87
f 60/110/88 61/111/89 62/112/90 54/109/87
f 54/109/87 62/112/90 59/106/84
f 58/107/85 56/113/91 42/114/92 55/108/86
f 45/115/93 43/116/94 42/114/92 56/113/91
