# This file uses centimeters as units for non-parametric coordinates.

mtllib Cliff02_low.mtl
g default
v 0.603655 53.682159 14.211746
v -2.399332 54.057964 -1.164940
v -13.032398 49.432369 -2.166420
v -13.953674 40.893799 7.885994
v 3.120771 55.304077 10.591629
v 5.240131 58.481052 -7.901436
v 6.156975 61.674263 -18.811272
v -3.508482 53.523338 -19.740105
v -9.322985 47.921593 -15.059334
v -11.582626 46.778786 -12.247169
v -19.019905 -61.551380 -20.221764
v -27.635418 -62.163403 10.653801
v -27.084084 -54.941654 19.004356
v -24.905579 -62.054810 22.625923
v 19.296625 60.805122 -9.274635
v 16.388088 62.672188 -15.594276
v 19.483473 55.340675 13.475243
v 6.850245 54.335606 16.944801
v 15.962807 55.441078 16.510155
v 18.960806 51.035851 17.113724
v 19.126143 58.384491 -15.439064
v 17.510769 59.329418 -17.250374
v 16.364040 -62.283657 -19.885033
v -5.801998 -61.879196 -33.114906
v -7.725212 -62.076248 32.158119
v 0.750652 50.366459 15.747597
v -1.099590 -61.900608 33.114906
v 19.641937 -61.824081 28.396584
v 27.635420 -62.356300 -3.076637
v 23.937868 -62.116844 18.566071
v 21.891153 -62.672188 22.600815
vt 0.815332 0.343466
vt 0.385396 0.390816
vt 0.373515 0.270799
vt 0.402969 0.239113
vt 0.821684 0.357612
vt 0.393310 0.459129
vt 0.373558 0.221660
vt 0.783065 0.262000
vt 0.845671 0.304800
vt 0.841587 0.387249
vt 0.829791 0.200870
vt 0.882921 0.332270
vt 0.815357 0.198835
vt 0.382167 0.147642
vt 0.899775 0.371779
vt 0.890491 0.413978
vt 0.878690 0.623293
vt 0.889469 0.646469
vt 0.418254 0.683619
vt 0.418200 0.606164
vt 0.897260 0.618652
vt 0.882623 0.614041
vt 0.870987 0.734069
vt 0.422320 0.767409
vt 0.853208 0.748528
vt 0.421086 0.784868
vt 0.873147 0.756954
vt 0.925817 0.304048
vt 0.949040 0.286888
vt 0.987037 0.317745
vt 0.951167 0.396427
vt 0.979955 0.301736
vt 0.933389 0.416319
vt 0.819815 0.342372
vt 0.258325 0.623048
vt 0.199032 0.636514
vt 0.185639 0.447199
vt 0.248999 0.485031
vt 0.180086 0.633781
vt 0.147836 0.484044
vt 0.265092 0.606439
vt 0.130980 0.606531
vt 0.123181 0.572308
vt 0.281402 0.532952
vt 0.271062 0.594858
vt 0.868364 0.466420
vt 0.872791 0.419651
vt 0.882768 0.462384
vt 0.411999 0.556994
vt 0.873904 0.792075
vt 0.877360 0.818030
vt 0.863382 0.818227
vt 0.438763 0.914646
vt 0.435077 0.889311
vt 0.425503 0.808550
vt 0.861547 0.259559
vt 0.925547 0.286358
vt 0.819390 0.300840
vn -0.599996 0.738355 0.307954
vn -0.599996 0.738356 0.307954
vn -0.599996 0.738355 0.307954
vn -0.599996 0.738355 0.307954
vn -0.427086 0.898054 0.105344
vn -0.427086 0.898054 0.105344
vn -0.427086 0.898054 0.105344
vn -0.427086 0.898054 0.105344
vn -0.568893 0.818748 0.077535
vn -0.568893 0.818748 0.077535
vn -0.568893 0.818748 0.077535
vn -0.568893 0.818748 0.077535
vn -0.424081 0.877277 -0.224810
vn -0.424081 0.877277 -0.224810
vn -0.424081 0.877277 -0.224810
vn -0.424081 0.877277 -0.224810
vn -0.685288 0.727999 0.019967
vn -0.685288 0.727999 0.019967
vn -0.685288 0.727999 0.019967
vn -0.971454 0.097702 -0.216176
vn -0.971454 0.097702 -0.216176
vn -0.971454 0.097702 -0.216176
vn -0.971454 0.097702 -0.216176
vn -0.989756 0.116514 -0.082504
vn -0.989756 0.116514 -0.082504
vn -0.989756 0.116514 -0.082504
vn -0.989756 0.116514 -0.082504
vn -0.958437 -0.181431 0.220185
vn -0.958437 -0.181431 0.220185
vn -0.958437 -0.181431 0.220185
vn -0.151421 0.943542 0.294620
vn -0.151421 0.943542 0.294620
vn -0.151421 0.943542 0.294620
vn -0.151421 0.943542 0.294620
vn -0.085692 0.975945 0.200470
vn -0.085692 0.975945 0.200470
vn -0.085692 0.975945 0.200470
vn -0.085692 0.975945 0.200470
vn -0.078278 0.977677 0.194987
vn -0.078278 0.977677 0.194987
vn -0.078278 0.977677 0.194987
vn -0.078279 0.977677 0.194987
vn -0.126907 0.975540 -0.179491
vn -0.126907 0.975540 -0.179491
vn -0.126907 0.975540 -0.179491
vn 0.579211 0.484051 0.655904
vn 0.579211 0.484051 0.655904
vn 0.579210 0.484051 0.655904
vn 0.814412 0.510053 -0.276728
vn 0.814412 0.510053 -0.276728
vn 0.814412 0.510053 -0.276728
vn 0.814412 0.510053 -0.276728
vn 0.217376 0.490961 -0.843626
vn 0.217376 0.490961 -0.843626
vn 0.217376 0.490961 -0.843626
vn 0.748193 0.007318 -0.663441
vn 0.748193 0.007318 -0.663441
vn 0.748193 0.007318 -0.663441
vn 0.406192 0.041354 -0.912852
vn 0.406192 0.041354 -0.912852
vn 0.406192 0.041354 -0.912852
vn 0.406192 0.041354 -0.912852
vn -0.711455 0.095849 -0.696164
vn -0.711455 0.095849 -0.696164
vn -0.711455 0.095849 -0.696164
vn -0.711455 0.095849 -0.696164
vn -0.679528 0.097774 -0.727105
vn -0.679528 0.097774 -0.727105
vn -0.679528 0.097774 -0.727105
vn -0.001655 0.115159 -0.993346
vn -0.001655 0.115159 -0.993346
vn -0.001655 0.115159 -0.993346
vn -0.597313 0.315133 0.737501
vn -0.510144 0.168220 0.843478
vn -0.512781 0.172295 0.841053
vn -0.653280 0.174965 0.736622
vn -0.653280 0.174965 0.736622
vn -0.653280 0.174965 0.736622
vn -0.404643 0.369527 0.836489
vn -0.404643 0.369527 0.836489
vn -0.404643 0.369527 0.836489
vn -0.213114 0.152795 0.965006
vn -0.213114 0.152795 0.965006
vn -0.213114 0.152795 0.965006
vn -0.213114 0.152795 0.965006
vn -0.510005 0.168006 0.843605
vn -0.510005 0.168006 0.843605
vn 0.164556 0.114704 0.979676
vn 0.164556 0.114704 0.979676
vn 0.164556 0.114704 0.979676
vn 0.164556 0.114704 0.979676
vn 0.894283 0.017240 -0.447169
vn 0.894283 0.017240 -0.447169
vn 0.894283 0.017240 -0.447169
vn 0.894283 0.017240 -0.447169
vn 0.994724 0.056892 0.085362
vn 0.994724 0.056892 0.085362
vn 0.994724 0.056892 0.085362
vn 0.994724 0.056892 0.085362
vn 0.938195 0.045670 0.343082
vn 0.938195 0.045670 0.343082
vn 0.938195 0.045670 0.343082
vn 0.938195 0.045670 0.343082
vn 0.736890 0.071649 0.672205
vn 0.736890 0.071649 0.672205
vn 0.736890 0.071649 0.672205
vn 0.736890 0.071649 0.672205
vn -0.008519 -0.999954 0.004420
vn -0.008519 -0.999954 0.004420
vn -0.008519 -0.999954 0.004420
vn -0.008519 -0.999954 0.004420
vn 0.039525 -0.999213 -0.003450
vn 0.039525 -0.999213 -0.003450
vn 0.039525 -0.999213 -0.003450
vn 0.039525 -0.999213 -0.003450
vn -0.287273 -0.957421 0.028616
vn -0.287273 -0.957421 0.028616
vn -0.287273 -0.957421 0.028616
vn -0.009655 -0.999948 -0.003303
vn -0.009655 -0.999948 -0.003303
vn -0.009655 -0.999948 -0.003303
vn -0.009655 -0.999948 -0.003303
vn 0.014860 -0.999842 -0.009706
vn 0.014860 -0.999842 -0.009706
vn 0.014860 -0.999843 -0.009706
vn 0.014860 -0.999843 -0.009706
s off
g Cliff02_low
usemtl lambert2SG
f 1/57/1 2/12/2 3/9/3 4/56/4
f 2/12/5 1/57/6 5/28/7 6/15/8
f 8/10/9 2/12/10 6/15/11 7/16/12
f 10/34/13 3/9/14 2/12/15 9/5/16
f 8/10/17 9/5/18 2/12/19
f 10/1/20 11/2/21 12/3/22 13/4/23
f 13/4/24 4/8/25 3/58/26 10/1/27
f 12/3/28 14/7/29 13/4/30
f 16/33/31 7/16/32 6/15/33 15/31/34
f 6/15/35 5/28/36 17/30/37 15/31/38
f 18/29/39 17/30/40 5/28/41 1/57/42
f 18/29/43 19/32/44 17/30/45
f 19/27/46 20/25/47 17/23/48
f 16/21/49 15/18/50 21/17/51 22/22/52
f 22/46/53 7/47/54 16/48/55
f 21/17/56 23/20/57 22/22/58
f 7/47/59 22/46/60 23/49/61 24/6/62
f 11/2/63 10/1/64 9/5/65 24/6/66
f 24/6/67 9/5/68 8/10/69
f 24/6/70 8/10/71 7/47/72
s 1
f 1/11/73 4/8/74 26/13/75
s off
f 4/8/76 13/4/77 14/7/78
f 18/50/79 1/51/80 26/52/81
f 18/50/82 26/52/83 25/53/84 27/54/85
s 1
f 26/13/75 4/8/74 14/7/86 25/14/87
s off
f 19/27/88 18/50/89 27/54/90 28/55/91
f 21/17/92 15/18/93 29/19/94 23/20/95
f 15/18/96 17/23/97 30/24/98 29/19/99
f 17/23/100 20/25/101 31/26/102 30/24/103
f 20/25/104 19/27/105 28/55/106 31/26/107
f 28/35/108 27/36/109 24/37/110 23/38/111
f 29/44/112 30/45/113 31/41/114 23/38/115
f 23/38/116 31/41/117 28/35/118
f 27/36/119 25/39/120 11/40/121 24/37/122
f 14/42/123 12/43/124 11/40/125 25/39/126
