# This file uses centimeters as units for non-parametric coordinates.

mtllib Cliff03_low.mtl
g default
v 12.906912 62.048582 -10.454997
v 17.407970 62.222517 -4.292953
v 18.106383 50.194921 -10.874114
v 17.323391 50.034178 -11.837737
v 5.179263 51.341665 -14.312057
v -2.273727 64.826185 -8.192519
v -15.994573 21.324148 -13.336047
v -12.519939 64.602331 -4.919681
v -3.818823 -69.843050 -23.952971
v -15.879724 -72.401697 -21.409633
v -15.469829 32.622778 21.414922
v -14.829682 62.389830 19.912480
v -16.740159 77.159330 11.846719
v -16.249372 77.339048 8.546102
v -11.307487 78.453947 8.358968
v -10.216381 78.838438 16.133681
v -8.138208 73.324858 19.707574
v -2.201664 72.776159 19.199498
v 3.515444 68.105116 20.021113
v 3.959814 69.243078 17.993848
v 17.695374 55.231092 13.078891
v 17.097366 62.870504 0.769414
v 17.716567 41.012152 19.389552
v 20.240645 -69.947954 6.379004
v 20.399007 -72.050634 -9.654552
v 5.470338 -78.059191 -20.487453
v -16.235795 -77.751101 -17.554820
v -19.898793 -78.276110 -8.797240
v -19.069055 -48.104319 -17.244376
v -18.302907 -78.496614 16.665517
v -17.860463 -74.330111 20.356654
v -5.922919 -78.834841 21.354844
v -11.104116 -75.225740 24.000840
v 10.308484 -79.127237 19.652570
v 9.100926 -76.379511 23.499875
v 16.719801 -76.726683 17.111426
v 16.530422 -74.204210 20.355344
v 15.193014 -63.388170 23.289823
v 19.227151 -76.855902 6.704593
v 17.030771 -78.481760 -10.479236
v 16.204329 -79.004583 5.558232
v 12.076531 -78.769953 -16.656425
vt 0.410936 0.794966
vt 0.360198 0.561419
vt 0.550031 0.619723
vt 0.545062 0.780036
vt 0.335218 0.190300
vt 0.374266 0.024880
vt 0.504738 0.861836
vt 0.486774 0.863035
vt 0.299892 0.060918
vt 0.320421 0.030285
vt 0.531992 0.042962
vt 0.511548 0.020906
vt 0.568607 0.844916
vt 0.545907 0.874274
vt 0.179140 0.743582
vt 0.115169 0.707165
vt 0.234845 0.672154
vt 0.205462 0.737481
vt 0.073184 0.801669
vt 0.061845 0.796725
vt 0.086697 0.066617
vt 0.167336 0.050917
vt 0.245163 0.737855
vt 0.241173 0.671051
vt 0.056005 0.834331
vt 0.075596 0.639100
vt 0.000000 0.107588
vt 0.027668 0.035710
vt 0.083024 0.030709
vt 0.257826 0.007602
vt 0.054663 0.888131
vt 0.091747 0.903806
vt 0.011794 0.049962
vt 0.089885 0.011454
vt 0.174680 0.015411
vt 0.216949 0.008937
vt 0.975066 0.818904
vt 0.959837 0.894914
vt 0.856580 0.946953
vt 0.945275 0.795418
vt 0.952133 0.947826
vt 0.861253 0.971712
vt 0.823583 0.851783
vt 0.919893 0.794171
vt 0.845824 0.977860
vt 0.817628 0.949934
vt 0.293455 0.751348
vt 0.349795 0.764327
vt 0.361174 0.799940
vt 0.285950 0.770554
vt 0.372034 0.760902
vt 0.386395 0.803681
vt 0.372870 0.882942
vt 0.396553 0.909476
vt 0.220408 0.965166
vt 0.354552 0.948561
vt 0.384405 0.948187
vt 0.173436 0.948205
vt 0.201575 0.771048
vt 0.151998 0.834805
vt 0.170440 0.798830
vt 0.138875 0.950585
vt 0.112469 0.889855
vt 0.950386 0.029492
vt 0.976747 0.094882
vt 0.910335 0.090361
vt 0.867245 0.013463
vt 0.917495 0.782275
vt 0.863407 0.739710
vt 0.795577 0.248869
vt 0.809178 0.011404
vt 0.797283 0.752405
vt 0.651869 0.826061
vt 0.619562 0.828634
vt 0.583059 0.769554
vt 0.682567 0.800052
vt 0.610136 0.864751
vt 0.599945 0.023754
vt 0.709395 0.017105
vt 0.578194 0.608152
vt 0.558415 0.029011
vt 0.742769 0.087304
vt 0.759183 0.653106
vt 0.753530 0.027125
vn 0.214047 0.667319 -0.713351
vn 0.668059 0.709128 -0.225466
vn 0.968902 0.023142 -0.246361
vn 0.439734 0.042576 -0.897118
vn 0.032149 0.116524 -0.992667
vn -0.145188 0.494706 -0.856847
vn -0.199963 0.096360 -0.975054
vn -0.308712 0.346417 -0.885829
vn 0.039870 0.042707 -0.998292
vn -0.320494 0.011931 -0.947176
vn -0.998189 0.039364 -0.045482
vn -0.999029 0.044066 -0.000500
vn -0.998875 0.047008 -0.006238
vn -0.998257 0.036466 -0.046394
vn -0.977518 -0.178350 -0.112474
vn -0.977518 -0.178351 -0.112474
vn -0.232580 0.778250 -0.583296
vn 0.179183 0.914356 -0.363106
vn -0.279263 0.254435 0.925891
vn -0.523643 0.347695 0.777757
vn -0.552070 0.330681 0.765421
vn -0.003661 0.032462 0.999466
vn 0.008811 0.092654 0.995659
vn 0.600762 0.784570 0.153410
vn 0.564104 0.824967 -0.034868
vn 0.065204 0.066738 0.995638
vn 0.733286 0.676539 0.067716
vn 0.991844 0.070332 0.106292
vn 0.689546 0.020830 0.723942
vn 0.467215 0.883334 -0.037838
vn -0.234986 0.971985 -0.005234
vn 0.997557 0.007677 0.069430
vn 0.942793 -0.001726 -0.333374
vn 0.432384 0.002369 -0.901686
vn -0.102247 -0.523713 -0.845736
vn -0.936980 -0.085999 -0.338634
vn -0.999602 0.020446 0.019437
vn -0.997065 0.041800 -0.064148
vn -0.997518 0.022582 0.066686
vn -0.997518 0.022582 0.066686
vn -0.042211 0.001272 0.999108
vn -0.325245 -0.075678 0.942597
vn -0.035859 -0.998995 0.026895
vn -0.025212 -0.994302 0.103579
vn 0.021809 -0.002490 0.999759
vn 0.124091 -0.954007 0.272896
vn 0.868337 -0.409344 0.280051
vn 0.874243 -0.149585 0.461870
vn 0.578771 0.018557 0.815279
vn -0.314109 0.010047 0.949334
vn 0.889831 -0.448542 0.083734
vn 0.112373 -0.993521 -0.016996
vn 0.103250 -0.993760 -0.042193
vn 0.653912 -0.021874 -0.756254
vn 0.653912 -0.021874 -0.756254
vn -0.009127 -0.999109 -0.041203
vn -0.012657 -0.999548 -0.027262
vn -0.035941 -0.999354 -0.000679
vn -0.035941 -0.999354 -0.000679
s 1
g Cliff03_low
usemtl initialShadingGroup
f 1/23/1 2/18/2 3/17/3 4/24/4
f 1/64/1 4/65/4 5/66/5 6/67/6
f 5/66/5 7/70/7 8/71/8 6/67/6
f 7/70/7 5/66/5 9/69/9 10/72/10
f 8/1/11 7/2/12 11/3/13 12/4/14
f 12/4/14 13/7/15 14/8/16 8/1/11
f 6/38/6 8/41/8 14/42/17 15/39/18
f 1/37/1 6/38/6 15/39/18 2/40/2
f 17/13/19 16/14/20 13/7/21 12/4/22
f 16/77/20 17/74/19 18/73/23
f 20/19/24 18/25/25 19/20/26
f 22/15/27 20/19/24 19/20/26 21/16/28
f 21/16/28 19/20/26 23/26/29
f 22/15/27 21/16/28 3/17/3 2/18/2
f 16/31/30 18/25/25 20/19/24 15/32/18
f 20/43/24 22/44/27 2/40/2 15/39/18
f 13/45/31 16/46/30 15/39/18 14/42/17
f 3/17/3 21/16/28 24/21/32 25/22/33
f 5/66/5 4/65/4 26/68/34 9/69/9
f 3/17/3 25/22/33 26/30/34 4/24/4
f 10/62/10 9/63/9 26/60/34 27/58/35
f 27/10/36 28/6/37 29/5/38 10/9/10
f 7/2/12 29/5/38 28/6/37 11/3/13
f 29/5/38 7/2/7 10/9/10
f 31/11/39 11/3/13 28/6/37 30/12/40
f 33/54/41 31/57/42 30/56/43 32/53/44
f 18/73/23 17/74/19 12/75/22 19/76/26
f 35/52/45 33/54/41 32/53/44 34/49/46
f 34/49/46 36/48/47 37/51/48 35/52/45
f 35/79/45 37/84/48 38/82/49
f 19/76/26 12/75/22 33/78/41 35/79/45
f 11/80/50 31/81/42 33/78/41 12/75/22
f 23/26/29 38/27/49 24/21/32 21/16/28
f 38/82/49 23/83/29 19/76/26 35/79/45
f 38/27/49 37/33/48 36/28/47 24/21/32
f 36/28/47 39/29/51 25/22/33 24/21/32
f 41/34/52 40/35/53 25/22/33 39/29/51
f 40/35/54 42/36/55 26/30/34 25/22/33
f 39/47/51 36/48/47 34/49/46 41/50/52
f 27/58/56 40/59/53 41/50/52 28/55/57
f 28/55/57 41/50/52 32/53/44 30/56/43
f 34/49/46 32/53/44 41/50/52
f 27/58/56 26/60/58 42/61/59 40/59/53
