# This file uses centimeters as units for non-parametric coordinates.

mtllib Rock03.mtl
g default
v -19.994011 -63.104089 -13.702313
v 12.646513 -63.104089 -14.093292
v -10.318979 78.608381 -20.553505
v 16.218965 80.086994 -16.405078
v -17.682226 76.627251 -47.336048
v 16.218965 80.086994 -50.306269
v -24.530772 -63.104089 -57.215554
v 18.530751 -63.104089 -52.618054
v -17.682226 67.394735 -16.405078
v 16.218965 67.394735 -16.405078
v 16.218965 67.394735 -50.306269
v -17.682226 67.394735 -50.306269
v -8.436583 -63.104089 -64.257734
v -7.511867 67.394735 -55.347573
v -7.511867 80.086994 -47.819507
v -7.464790 78.922328 -17.975615
v -17.635149 78.926050 -28.145972
v 16.218965 80.086994 -26.575436
v 16.218965 67.394735 -26.575436
v 18.530751 -63.104089 -25.650721
v -8.436583 -63.104089 -25.650721
vt 0.374871 -0.001035
vt 0.625000 0.000000
vt 0.436922 0.311487
vt 0.625000 0.250000
vt 0.375000 0.500000
vt 0.625000 0.500000
vt 0.375000 0.750000
vt 0.625000 0.750000
vt 0.375039 0.999972
vt 0.625000 1.000000
vt 0.875000 0.000000
vt 0.875000 0.250000
vt 0.125000 0.000000
vt 0.125000 0.250000
vt 0.374611 0.221906
vt 0.625000 0.225000
vt 0.625000 0.525000
vt 0.875000 0.225000
vt 0.125000 0.225000
vt 0.375000 0.525000
vt 0.450000 0.750000
vt 0.450000 0.525000
vt 0.450000 0.500000
vt 0.450000 0.250000
vt 0.300000 0.250000
vt 0.375000 0.325000
vt 0.625000 0.325000
vt 0.700000 0.250000
vt 0.700000 0.225000
vt 0.625000 0.925000
vt 0.700000 0.000000
vt 0.450000 0.925000
vn -0.042314 0.089873 0.995054
vn 0.004605 0.020705 0.999775
vn 0.003152 0.023619 0.999716
vn -0.028734 0.076749 0.996636
vn -0.054453 0.998386 0.016138
vn -0.051731 0.998574 0.013169
vn -0.029414 0.999344 0.021107
vn -0.024720 0.999313 0.027613
vn 0.052193 0.072134 -0.996028
vn -0.057981 0.328301 -0.942792
vn 0.051533 0.283944 -0.957455
vn 0.292671 0.062169 -0.954190
vn 0.000000 -1.000000 0.000000
vn 0.000000 -1.000000 0.000000
vn 0.000000 -1.000000 0.000000
vn 0.000000 -1.000000 0.000000
vn 1.000000 0.000000 0.000000
vn 0.997302 0.011061 0.072565
vn 0.999867 0.016289 0.000000
vn 1.000000 0.000000 0.000000
vn -0.997801 0.033405 0.057242
vn -0.997282 0.038747 0.062675
vn -0.998190 0.043831 0.041188
vn -0.999996 0.002594 0.000774
vn 0.005875 0.019077 0.999801
vn 0.005875 0.019077 0.999801
vn 0.996586 0.011866 0.081700
vn 0.999843 0.017712 0.000000
vn 0.053977 0.054882 -0.997033
vn 0.312261 0.042465 -0.949047
vn -0.997707 0.034075 0.058469
vn -0.997707 0.034075 0.058469
vn 0.000000 -1.000000 0.000000
vn 0.000000 -1.000000 0.000000
vn -0.410513 0.093144 -0.907085
vn -0.417007 0.067358 -0.906404
vn -0.303421 0.411515 -0.859413
vn -0.166038 0.985742 -0.027268
vn -0.166038 0.985742 -0.027268
vn -0.576669 0.588354 0.566827
vn -0.053667 0.998480 -0.012574
vn -0.053667 0.998480 -0.012574
vn 0.970358 -0.001314 0.241670
vn 1.000000 0.000000 0.000000
vn 0.965230 -0.001421 0.261400
vn 0.000000 -1.000000 0.000000
vn -0.570517 0.587086 0.574318
s 1
g Cliff03
usemtl initialShadingGroup
f 16/24/1 9/15/2 10/16/3 4/4/4
s 2
f 15/23/5 3/3/6 18/27/7 6/6/8
s 3
f 14/22/9 15/23/10 6/6/11 11/17/12
s 4
f 20/30/13 21/32/14 13/21/15 8/8/16
s 5
f 18/28/17 19/29/18 11/18/19 6/12/20
s 6
f 12/19/21 9/15/22 17/25/23 5/14/24
s 1
f 1/1/25 2/2/26 10/16/3 9/15/2
s 5
f 19/29/18 20/31/27 8/11/28 11/18/19
s 3
f 13/21/29 14/22/9 11/17/12 8/8/30
s 6
f 9/15/22 12/19/21 7/13/31 1/1/32
s 4
f 7/7/33 13/21/15 21/32/14 1/9/34
s 3
f 12/20/35 14/22/9 13/21/29 7/7/36
f 5/5/37 15/23/10 14/22/9 12/20/35
s 2
f 17/26/38 3/3/6 15/23/5 5/5/39
s 1
f 9/15/2 16/24/1 3/3/40
s 2
f 18/27/7 3/3/6 16/24/41 4/4/42
s 5
f 10/16/43 19/29/18 18/28/17 4/4/44
f 2/2/45 20/31/27 19/29/18 10/16/43
s 4
f 1/9/34 21/32/14 20/30/13 2/10/46
s 6
f 17/25/23 9/15/22 3/3/47
