# This file uses centimeters as units for non-parametric coordinates.

mtllib Rock02.mtl
g default
v -50.476781 -59.080372 -106.569364
v -0.868145 -59.080372 -97.732159
v -34.159167 48.814267 -120.267402
v -0.868145 59.861359 -110.597016
v -31.812619 48.841183 -141.866361
v -0.868145 67.614136 -144.306160
v -40.310222 -59.080372 -147.185466
v -6.975631 -59.080372 -152.236541
v -25.672463 -59.080372 -93.292421
v -26.084227 -59.080372 -161.332656
v -17.513656 65.398629 -147.079661
v -17.513656 58.731226 -110.597016
v -34.159167 54.941487 -131.581191
v -17.513656 59.921005 -127.451588
v -0.868145 62.614739 -127.451588
v 11.083073 -59.080372 -127.451588
v -25.672463 -59.080372 -127.451588
v -47.359287 -59.080372 -127.451588
v -35.594188 -59.080372 -98.603198
v -34.347192 -59.080372 -127.451588
v -31.774625 -59.080372 -155.673780
v -24.171861 58.615916 -147.449203
v -24.171861 59.760999 -136.080376
v -24.171861 54.764445 -114.465170
vt 0.375000 0.000000
vt 0.625000 0.000000
vt 0.375000 0.250000
vt 0.625000 0.250000
vt 0.375000 0.500000
vt 0.625000 0.500000
vt 0.375000 0.750000
vt 0.625000 0.750000
vt 0.375000 1.000000
vt 0.625000 1.000000
vt 0.875000 0.000000
vt 0.875000 0.250000
vt 0.125000 0.000000
vt 0.125000 0.250000
vt 0.500000 0.000000
vt 0.500000 1.000000
vt 0.500000 0.750000
vt 0.500000 0.500000
vt 0.500000 0.250000
vt 0.250000 0.250000
vt 0.375000 0.375000
vt 0.500000 0.375000
vt 0.625000 0.375000
vt 0.750000 0.250000
vt 0.625000 0.875000
vt 0.750000 0.000000
vt 0.500000 0.875000
vt 0.250000 0.000000
vt 0.375000 0.875000
vt 0.450000 0.000000
vt 0.450000 1.000000
vt 0.450000 0.875000
vt 0.450000 0.750000
vt 0.450000 0.500000
vt 0.450000 0.375000
vt 0.450000 0.250000
vn -0.054962 0.138156 0.988884
vn -0.103700 0.142400 0.984362
vn 0.102406 0.122270 0.987200
vn 0.102406 0.122270 0.987200
vn -0.271714 0.934179 0.231259
vn -0.235521 0.954672 0.182022
vn -0.140094 0.969755 0.199871
vn -0.162541 0.948370 0.272352
vn 0.111158 0.083204 -0.990314
vn 0.205257 0.075387 -0.975800
vn 0.310729 0.065589 -0.948233
vn 0.310729 0.065589 -0.948233
vn 0.000000 -1.000000 -0.000000
vn 0.000000 -1.000000 -0.000000
vn 0.000000 -1.000000 -0.000000
vn 0.000000 -1.000000 -0.000000
vn 0.993834 0.049512 -0.099212
vn 0.996430 0.050867 -0.067383
vn 0.918391 0.034192 -0.394193
vn 0.918391 0.034192 -0.394193
vn -0.944513 0.094025 -0.314729
vn -0.976177 0.111960 -0.185857
vn -0.973374 0.109963 -0.201123
vn -0.944513 0.094025 -0.314729
vn 0.000000 -1.000000 0.000000
vn 0.000000 -1.000000 0.000000
vn -0.593322 0.101335 -0.798562
vn -0.546947 0.105149 -0.830537
vn -0.621718 0.780233 -0.068582
vn -0.573105 0.818591 0.038204
vn -0.508105 0.169883 0.844375
vn -0.508230 0.171191 0.844035
vn -0.439426 0.874621 0.204802
vn -0.192456 0.973429 0.124086
vn -0.113349 0.986827 0.115434
vn 0.965909 0.061417 0.251490
vn 0.965909 0.061417 0.251490
vn 0.000000 -1.000000 0.000000
vn 0.000000 -1.000000 0.000000
vn 0.000000 -1.000000 0.000000
vn -0.989445 0.125836 -0.071859
vn -0.989445 0.125836 -0.071859
vn 0.000000 -1.000000 0.000000
vn 0.000000 -1.000000 0.000000
vn 0.000000 -1.000000 0.000000
vn -0.684658 0.092259 -0.723001
vn -0.684658 0.092259 -0.723001
vn -0.556361 0.820276 0.132697
vn -0.703556 0.647477 -0.292886
vn -0.469457 0.836514 0.282584
vn -0.508681 0.175987 0.842777
vn -0.508681 0.175987 0.842777
s 1
g Cliff02
usemtl initialShadingGroup
f 12/19/1 9/15/2 2/2/3 4/4/4
s 2
f 11/18/5 14/22/6 15/23/7 6/6/8
s 3
f 10/17/9 11/18/10 6/6/11 8/8/12
s 4
f 16/25/13 17/27/14 10/17/15 8/8/16
s 5
f 15/24/17 16/26/18 8/11/19 6/12/20
s 6
f 7/13/21 18/28/22 13/20/23 5/14/24
s 4
f 20/32/25 21/33/26 10/17/15 17/27/14
s 3
f 21/33/27 22/34/28 11/18/10 10/17/9
s 2
f 22/34/29 23/35/30 14/22/6 11/18/5
s 1
f 24/36/31 19/30/32 9/15/2 12/19/1
s 2
f 23/35/30 24/36/33 12/19/34 14/22/6
f 15/23/7 14/22/6 12/19/34 4/4/35
s 5
f 2/2/36 16/26/18 15/24/17 4/4/37
s 4
f 9/16/38 17/27/14 16/25/13 2/10/39
f 19/31/40 20/32/25 17/27/14 9/16/38
s 6
f 13/20/23 18/28/22 1/1/41 3/3/42
s 4
f 18/29/43 20/32/25 19/31/40 1/9/44
f 7/7/45 21/33/26 20/32/25 18/29/43
s 3
f 5/5/46 22/34/28 21/33/27 7/7/47
s 2
f 13/21/48 23/35/30 22/34/29 5/5/49
f 3/3/50 24/36/33 23/35/30 13/21/48
s 1
f 1/1/51 19/30/32 24/36/31 3/3/52
