# This file uses centimeters as units for non-parametric coordinates.

mtllib Rock01.mtl
g default
v -25.282307 -75.302649 130.845394
v -5.105762 -75.302649 157.816589
v -19.539821 -75.302649 148.896281
v -25.518603 75.302649 130.845394
v -17.397848 75.302649 144.513351
v -0.572996 75.302649 148.541593
v 25.518603 -75.302649 130.845394
v 19.539821 -75.302649 148.896281
v 5.105762 -75.302649 157.816589
v 25.975891 75.302649 130.845394
v 9.638529 75.302649 148.541593
v 21.681794 75.302649 144.513351
v -19.539821 75.302649 40.987202
v -25.525390 75.302649 63.966025
v -5.105762 75.302649 27.255728
v -25.486123 -75.302649 63.966025
v -19.539821 -75.302649 43.740377
v -5.105762 -75.302649 34.526487
v 19.259133 75.302649 40.987202
v 5.105762 75.302649 27.255728
v 23.984265 75.302649 63.966025
v 25.518603 -75.302649 63.966025
v 5.105762 -75.302649 34.526487
v 19.539821 -75.302649 43.740377
v -22.316537 75.302649 121.776040
v 24.130413 75.302649 121.776040
v 22.316537 -75.302649 121.776040
v -21.379245 -75.302649 121.776040
v -21.379245 -75.302649 76.194666
v 22.316537 -75.302649 76.194666
v 23.027503 75.302649 76.194666
v -22.512681 75.302649 76.194666
v 53.532987 75.302649 107.382451
v 44.338946 75.302649 114.301716
v 41.910020 -75.302649 107.382451
v 35.064935 -75.302649 114.301716
v 41.910020 -75.302649 90.575797
v 35.064935 -75.302649 83.656531
v 53.532987 75.302649 90.575797
v 44.226928 75.302649 83.656531
v -43.164810 75.302649 90.575797
v -36.066136 75.302649 83.656531
v -35.904037 -75.302649 90.575797
v -30.272738 -75.302649 83.656531
v -35.904037 -75.302649 107.382451
v -30.272738 -75.302649 114.301716
v -42.512664 75.302649 107.382451
v -35.244404 75.302649 114.301716
vt 0.474990 0.000000
vt 0.173340 0.000000
vt 0.326660 0.250000
vt 0.673340 0.000000
vt 0.826660 0.250000
vt 0.326660 0.000000
vt 0.474990 0.250000
vt 0.525010 0.000000
vt 0.673340 0.250000
vt 0.173340 0.250000
vt 0.474990 0.750000
vt 0.525010 0.500000
vt 0.826660 0.000000
vt 0.474990 0.500000
vt 0.375000 0.451660
vt 0.375000 0.298340
vt 0.525010 0.250000
vt 0.625000 0.298340
vt 0.625000 0.451660
vt 0.625000 0.798340
vt 0.625000 0.951660
vt 0.525010 1.000000
vt 0.474990 1.000000
vt 0.375000 0.951660
vt 0.375000 0.798340
vt 0.525010 0.750000
vt 0.375000 1.000000
vt 0.375000 0.000000
vt 0.375000 0.250000
vt 0.625000 1.000000
vt 0.625000 0.000000
vt 0.625000 0.250000
vt 0.375000 0.500000
vt 0.125000 0.250000
vt 0.375000 0.750000
vt 0.125000 0.000000
vt 0.625000 0.500000
vt 0.875000 0.250000
vt 0.875000 0.000000
vt 0.625000 0.750000
vt 0.375000 0.329004
vt 0.625000 0.329004
vt 0.625000 0.920996
vt 0.375000 0.920996
vt 0.375000 0.835137
vt 0.625000 0.835137
vt 0.625000 0.414863
vt 0.375000 0.414863
vt 0.789863 0.000000
vt 0.704004 0.250000
vt 0.295996 0.000000
vt 0.210137 0.250000
vt 0.704004 0.000000
vt 0.704004 0.000000
vt 0.723390 0.250000
vt 0.770477 0.000000
vt 0.789863 0.250000
vt 0.789863 0.250000
vt 0.210137 0.000000
vt 0.210137 0.000000
vt 0.229523 0.250000
vt 0.276610 0.000000
vt 0.295996 0.250000
vt 0.295996 0.250000
vt 0.704004 0.250000
vt 0.723390 0.000000
vt 0.789863 0.000000
vt 0.770477 0.250000
vt 0.210137 0.250000
vt 0.229523 0.000000
vt 0.295996 0.000000
vt 0.276610 0.250000
vn -0.233003 0.055819 0.970873
vn -0.251146 0.055232 0.966372
vn 0.252050 0.045574 0.966640
vn 0.278603 0.043659 0.959413
vn -0.423552 -0.035707 -0.905168
vn -0.419143 -0.035888 -0.907211
vn 0.421066 -0.035495 -0.906335
vn 0.425555 -0.035306 -0.904244
vn 0.997035 -0.076946 0.000000
vn 0.997035 -0.076946 0.000000
vn 0.997035 -0.076946 0.000000
vn 0.997035 -0.076946 0.000000
vn -0.998754 -0.045988 0.019377
vn -0.998754 -0.045988 0.019377
vn -0.998754 -0.045988 0.019377
vn -0.998754 -0.045988 0.019377
vn -0.990925 0.006592 0.134254
vn -0.916241 0.011624 0.400458
vn -0.916241 0.011624 0.400458
vn -0.990930 0.006591 0.134215
vn -0.382216 0.050308 0.922703
vn -0.382216 0.050308 0.922703
vn 0.439111 0.030983 0.897899
vn 0.439111 0.030983 0.897899
vn 0.951342 -0.003726 0.308114
vn 0.994541 -0.005206 0.104214
vn 0.994552 -0.005207 0.104109
vn 0.951342 -0.003726 0.308114
vn -0.997476 -0.003095 -0.070942
vn -0.963913 -0.002559 -0.266206
vn -0.963913 -0.002559 -0.266206
vn -0.997476 -0.003095 -0.070940
vn -0.622015 -0.026043 -0.782572
vn -0.622015 -0.026043 -0.782572
vn 0.625748 -0.025361 -0.779613
vn 0.625747 -0.025361 -0.779613
vn 0.970648 0.003651 -0.240478
vn 0.995307 0.003375 -0.096705
vn 0.995356 0.003374 -0.096199
vn 0.970648 0.003651 -0.240478
vn 0.000000 1.000000 0.000000
vn 0.000000 1.000000 0.000000
vn 0.000000 1.000000 0.000000
vn 0.000000 1.000000 0.000000
vn 0.000000 -1.000000 0.000000
vn 0.000000 -1.000000 0.000000
vn 0.000000 -1.000000 -0.000000
vn 0.000000 -1.000000 -0.000000
vn 0.000000 1.000000 -0.000000
vn 0.000000 1.000000 -0.000000
vn 0.000000 1.000000 -0.000000
vn 0.000000 1.000000 -0.000000
vn 0.000000 1.000000 0.000000
vn 0.000000 1.000000 0.000000
vn 0.000000 1.000000 0.000000
vn 0.000000 1.000000 0.000000
vn 0.000000 1.000000 0.000000
vn 0.000000 1.000000 0.000000
vn 0.963369 -0.007264 -0.268081
vn 0.963369 -0.007264 -0.268081
vn 0.000000 -1.000000 0.000000
vn 0.000000 -1.000000 0.000000
vn 0.000000 -1.000000 -0.000001
vn 0.000000 -1.000000 -0.000001
vn -0.931108 -0.003628 -0.364725
vn -0.931108 -0.003628 -0.364725
vn 0.000000 -1.000000 0.000000
vn 0.000000 -1.000000 0.000000
vn 0.985845 0.002695 0.167638
vn 0.985845 0.002695 0.167638
vn -0.960139 -0.003738 0.279499
vn -0.960139 -0.003738 0.279499
vn 0.413027 -0.015204 0.910592
vn 0.413027 -0.015204 0.910592
vn 0.413027 -0.015204 0.910592
vn 0.413027 -0.015204 0.910592
vn 0.000000 -1.000000 0.000000
vn 0.000000 -1.000000 0.000000
vn 0.000000 -1.000000 0.000000
vn 0.000000 -1.000000 0.000000
vn 0.402403 -0.013190 -0.915368
vn 0.402403 -0.013190 -0.915368
vn 0.402403 -0.013190 -0.915368
vn 0.402403 -0.013190 -0.915368
vn 0.000000 1.000000 0.000000
vn 0.000000 1.000000 0.000000
vn 0.000000 1.000000 0.000000
vn 0.000000 1.000000 0.000000
vn -0.553604 -0.012731 -0.832683
vn -0.553604 -0.012731 -0.832683
vn -0.553604 -0.012731 -0.832683
vn -0.553604 -0.012731 -0.832683
vn 0.000000 -1.000000 0.000000
vn 0.000000 -1.000000 0.000000
vn 0.000000 -1.000000 0.000000
vn 0.000000 -1.000000 0.000000
vn -0.565119 -0.011086 0.824935
vn -0.565119 -0.011086 0.824935
vn -0.565119 -0.011086 0.824935
vn -0.565119 -0.011086 0.824935
vn 0.000000 1.000000 0.000000
vn 0.000000 1.000000 0.000000
vn 0.000000 1.000000 0.000000
vn 0.000000 1.000000 0.000000
vn 0.652586 -0.045274 0.756360
vn 0.652586 -0.045274 0.756360
vn 0.652586 -0.045274 0.756360
vn 0.652586 -0.045274 0.756360
vn 0.649993 -0.044853 -0.758616
vn 0.649993 -0.044853 -0.758616
vn 0.649993 -0.044853 -0.758616
vn 0.649993 -0.044853 -0.758616
vn -0.735596 -0.031880 -0.676670
vn -0.735596 -0.031880 -0.676670
vn -0.735596 -0.031880 -0.676670
vn -0.735596 -0.031880 -0.676670
vn -0.731198 -0.028112 0.681585
vn -0.731198 -0.028112 0.681585
vn -0.731198 -0.028112 0.681585
vn -0.731198 -0.028112 0.681585
vn 0.000000 1.000000 0.000000
vn 0.000000 1.000000 0.000000
vn 0.000000 1.000000 0.000000
vn 0.000000 1.000000 0.000000
vn 0.000000 -1.000000 0.000000
vn 0.000000 -1.000000 0.000000
vn 0.000000 -1.000000 0.000000
vn 0.000000 -1.000000 0.000000
vn 0.000000 -1.000000 0.000000
vn 0.000000 -1.000000 0.000000
vn 0.000000 -1.000000 -0.000000
vn 0.000000 -1.000000 -0.000000
vn 0.000000 -1.000000 0.000001
vn 0.000000 -1.000000 0.000001
vn 0.000000 1.000000 0.000000
vn 0.000000 1.000000 0.000000
s 1
g Cliff01
usemtl initialShadingGroup
f 6/7/1 2/1/2 9/8/3 11/17/4
s 2
f 18/11/5 15/14/6 20/12/7 23/26/8
s off
f 33/55/9 35/66/10 37/56/11 39/68/12
f 41/61/13 43/70/14 45/62/15 47/72/16
s 3
f 1/6/17 3/28/18 5/29/19 4/3/20
s 1
f 3/28/21 2/1/2 6/7/1 5/29/22
f 9/8/3 8/31/23 12/32/24 11/17/4
s 4
f 8/31/25 7/4/26 10/9/27 12/32/28
s 5
f 14/10/29 13/34/30 17/36/31 16/2/32
s 2
f 13/33/33 15/14/6 18/11/5 17/35/34
f 20/12/7 19/37/35 24/40/36 23/26/8
s 6
f 19/38/37 21/5/38 22/13/39 24/39/40
s 7
f 12/32/41 5/29/42 6/7/43 11/17/44
s 8
f 29/45/45 30/46/46 27/43/47 28/44/48
s 7
f 31/47/49 32/48/50 25/41/51 26/42/52
f 19/37/53 13/33/54 14/15/55 21/19/56
f 26/42/52 25/41/51 4/16/57 10/18/58
s 4
f 10/9/27 7/4/26 27/53/59 26/50/60
s 8
f 3/27/61 8/30/62 9/22/63 2/23/64
s 3
f 25/63/65 28/51/66 1/6/17 4/3/20
s 8
f 22/20/67 30/46/46 29/45/45 16/25/68
s 6
f 31/57/69 30/49/70 22/13/39 21/5/38
s 7
f 21/19/56 14/15/55 32/48/50 31/47/49
s 5
f 14/10/29 16/2/32 29/59/71 32/52/72
s off
f 26/50/73 27/53/74 36/54/75 34/65/76
s 12
f 27/53/77 30/49/78 38/67/79 36/54/80
s off
f 30/49/81 31/57/82 40/58/83 38/67/84
s 13
f 40/58/85 34/65/86 33/55/87 39/68/88
s off
f 32/52/89 29/59/90 44/60/91 42/69/92
s 14
f 44/60/93 46/71/94 45/62/95 43/70/96
s off
f 28/51/97 25/63/98 48/64/99 46/71/100
s 15
f 25/63/101 32/52/102 42/69/103 48/64/104
s off
f 33/55/105 34/65/106 36/54/107 35/66/108
f 37/56/109 38/67/110 40/58/111 39/68/112
f 41/61/113 42/69/114 44/60/115 43/70/116
f 45/62/117 46/71/118 48/64/119 47/72/120
s 15
f 48/64/104 42/69/103 41/61/121 47/72/122
s 13
f 31/57/123 26/50/124 34/65/86 40/58/85
s 14
f 29/59/125 28/51/126 46/71/94 44/60/93
s 12
f 36/54/80 38/67/79 37/56/127 35/66/128
s 8
f 28/44/48 27/43/47 7/21/129 1/24/130
f 22/20/67 16/25/68 17/35/131 24/40/132
f 24/40/132 17/35/131 18/11/133 23/26/134
f 1/24/130 7/21/129 8/30/62 3/27/61
s 7
f 10/18/58 4/16/57 5/29/42 12/32/41
f 19/37/53 20/12/135 15/14/136 13/33/54
